<?xml version="1.0" encoding="UTF-8" standalone="no"?>
<!DOCTYPE svg PUBLIC "-//W3C//DTD SVG 1.1//EN" "http://www.w3.org/Graphics/SVG/1.1/DTD/svg11.dtd">
<svg width="100%" height="100%" viewBox="0 0 128 128" version="1.1" xmlns="http://www.w3.org/2000/svg" xmlns:xlink="http://www.w3.org/1999/xlink" xml:space="preserve" xmlns:serif="http://www.serif.com/" style="fill-rule:evenodd;clip-rule:evenodd;stroke-linejoin:round;stroke-miterlimit:2;">
    <g transform="matrix(1,0,0,1,-281,0)">
        <g id="question-2.0" serif:id="question 2.0" transform="matrix(1.99568,0,0,1.99568,53.492,0.138108)">
            <rect x="114" y="0" width="64" height="64" style="fill:none;"/>
            <clipPath id="_clip1">
                <rect x="114" y="0" width="64" height="64"/>
            </clipPath>
            <g clip-path="url(#_clip1)">
                <g id="question-mark-circle" transform="matrix(3.2,0,0,3.2,107.6,-6.3308)">
                    <path d="M12,2C6.477,2 2,6.477 2,12C2,17.523 6.477,22 12,22C17.523,22 22,17.523 22,12C22,6.477 17.523,2 12,2ZM13,19L11,19L11,17L13,17L13,19ZM15.067,11.254L14.172,12.172C13.448,12.896 13,13.5 13,15L11,15L11,14.5C11,13.396 11.448,12.396 12.171,11.672L13.414,10.414C13.776,10.052 14,9.552 14,9C14,7.895 13.105,7 12,7C10.896,7 10,7.895 10,9L8,9C8,6.791 9.791,5 12,5C14.209,5 16,6.791 16,9C16,9.88 15.643,10.677 15.067,11.254Z" style="fill:url(#_Linear2);fill-rule:nonzero;"/>
                </g>
            </g>
        </g>
    </g>
    <defs>
        <linearGradient id="_Linear2" x1="0" y1="0" x2="1" y2="0" gradientUnits="userSpaceOnUse" gradientTransform="matrix(20,0,0,20,2,12)"><stop offset="0" style="stop-color:rgb(0,155,255);stop-opacity:1"/><stop offset="1" style="stop-color:rgb(76,113,206);stop-opacity:1"/></linearGradient>
    </defs>
</svg>
